<?xml version="1.0" encoding="UTF-8" standalone="no"?>
<svg
   version="1.1"
   width="256"
   height="256"
   viewBox="0 0 256 256"
   xml:space="preserve"
   id="svg13"
   sodipodi:docname="Bathroom.svg"
   inkscape:version="1.4.2 (f4327f4, 2025-05-13)"
   xmlns:inkscape="http://www.inkscape.org/namespaces/inkscape"
   xmlns:sodipodi="http://sodipodi.sourceforge.net/DTD/sodipodi-0.dtd"
   xmlns="http://www.w3.org/2000/svg"
   xmlns:svg="http://www.w3.org/2000/svg"><defs
   id="defs13" /><sodipodi:namedview
   id="namedview13"
   pagecolor="#ffffff"
   bordercolor="#000000"
   borderopacity="0.25"
   inkscape:showpageshadow="2"
   inkscape:pageopacity="0.0"
   inkscape:pagecheckerboard="0"
   inkscape:deskcolor="#d1d1d1"
   inkscape:zoom="3.0195312"
   inkscape:cx="128"
   inkscape:cy="128"
   inkscape:window-width="1920"
   inkscape:window-height="991"
   inkscape:window-x="-9"
   inkscape:window-y="-9"
   inkscape:window-maximized="1"
   inkscape:current-layer="svg13" />
<g
   style="stroke: none; stroke-width: 0; stroke-dasharray: none; stroke-linecap: butt; stroke-linejoin: miter; stroke-miterlimit: 10; fill: none; fill-rule: nonzero; opacity: 1;"
   transform="translate(1.4065934065934016 1.4065934065934016) scale(2.81 2.81)"
   id="g13">
	<path
   d="M 85.447 60.789 c 1.636 -0.595 2.814 -2.15 2.814 -3.99 c 0 -2.183 -1.658 -3.967 -3.777 -4.209 V 31.58 c 0 -2.792 -2.271 -5.063 -5.063 -5.063 H 54.233 c -2.792 0 -5.063 2.271 -5.063 5.063 v 21.01 c -2.119 0.242 -3.777 2.026 -3.777 4.21 c 0 1.838 1.178 3.394 2.813 3.988 c 0.759 5.689 3.559 10.76 7.811 14.069 L 53.11 88.796 c -0.062 0.295 0.013 0.602 0.202 0.835 C 53.503 89.864 53.788 90 54.089 90 h 25.477 c 0.301 0 0.586 -0.136 0.776 -0.369 c 0.189 -0.233 0.264 -0.54 0.202 -0.835 l -2.907 -13.938 C 81.888 71.549 84.688 66.479 85.447 60.789 z M 54.233 28.517 h 25.188 c 1.689 0 3.063 1.374 3.063 3.063 v 20.962 H 51.17 V 34.308 h 23.891 c 0.553 0 1 -0.448 1 -1 s -0.447 -1 -1 -1 H 51.17 V 31.58 C 51.17 29.891 52.544 28.517 54.233 28.517 z M 47.393 56.8 c 0 -1.245 1.013 -2.258 2.258 -2.258 h 0.52 h 33.314 h 0.519 c 1.245 0 2.259 1.014 2.259 2.259 s -1.014 2.258 -2.259 2.258 H 49.65 C 48.405 59.059 47.393 58.045 47.393 56.8 z M 75.941 73.631 c -0.319 0.231 -0.473 0.628 -0.392 1.014 L 78.335 88 H 55.319 l 2.618 -12.56 h 8.89 c 0.553 0 1 -0.447 1 -1 s -0.447 -1 -1 -1 h -9.35 c -3.83 -2.881 -6.428 -7.328 -7.233 -12.382 h 33.165 C 82.588 66.219 79.905 70.757 75.941 73.631 z"
   style="stroke:none;stroke-width:1;stroke-dasharray:none;stroke-linecap:butt;stroke-linejoin:miter;stroke-miterlimit:10;fill:#0a6f9f;fill-rule:nonzero;opacity:1;fill-opacity:1"
   transform=" matrix(1 0 0 1 0 0) "
   stroke-linecap="round"
   id="path1" />
	<path
   d="M 37.615 38.608 H 23.822 v -5.636 c 0 -0.552 -0.448 -1 -1 -1 h -5.292 c -0.552 0 -1 0.448 -1 1 v 5.636 H 2.738 c -0.552 0 -1 0.448 -1 1 v 1.212 c 0 8.386 5.634 15.469 13.312 17.698 v 22.436 l -4.862 7.495 c -0.2 0.308 -0.215 0.699 -0.04 1.021 c 0.175 0.322 0.512 0.522 0.879 0.522 h 18.3 c 0.367 0 0.704 -0.2 0.879 -0.522 c 0.175 -0.322 0.16 -0.714 -0.04 -1.021 l -4.862 -7.495 V 58.518 c 7.678 -2.228 13.312 -9.312 13.312 -17.697 v -1.212 C 38.615 39.056 38.167 38.608 37.615 38.608 z M 18.531 33.972 h 3.292 v 4.636 h -3.292 V 33.972 z M 23.303 58.978 V 81.25 c 0 0.193 0.056 0.382 0.161 0.544 l 4.021 6.199 H 12.868 l 4.021 -6.199 c 0.105 -0.162 0.161 -0.351 0.161 -0.544 V 58.978 c 0.094 0.017 0.187 0.022 0.281 0.037 c 0.394 0.062 0.788 0.123 1.19 0.159 c 0.525 0.05 1.048 0.077 1.57 0.08 c 0.029 0 0.057 0.004 0.086 0.004 s 0.057 -0.004 0.086 -0.004 c 0.522 -0.003 1.045 -0.03 1.57 -0.08 c 0.402 -0.036 0.795 -0.097 1.189 -0.159 C 23.116 59 23.209 58.994 23.303 58.978 z M 36.615 40.82 c 0 7.738 -5.382 14.228 -12.595 15.965 c -0.31 0.074 -0.618 0.141 -0.925 0.197 c -0.336 0.06 -0.673 0.116 -1.016 0.155 c -0.181 0.022 -0.361 0.035 -0.541 0.05 c -0.417 0.034 -0.836 0.061 -1.262 0.064 c -0.067 0 -0.133 0 -0.2 0 c -0.425 -0.003 -0.844 -0.029 -1.261 -0.064 c -0.18 -0.016 -0.36 -0.028 -0.541 -0.05 c -0.342 -0.04 -0.679 -0.095 -1.015 -0.155 c -0.307 -0.057 -0.616 -0.123 -0.926 -0.198 C 9.12 55.048 3.738 48.558 3.738 40.82 v -0.212 h 13.792 h 5.292 h 13.792 V 40.82 z"
   style="stroke:none;stroke-width:1;stroke-dasharray:none;stroke-linecap:butt;stroke-linejoin:miter;stroke-miterlimit:10;fill:#0a6f9f;fill-rule:nonzero;opacity:1;fill-opacity:1"
   transform=" matrix(1 0 0 1 0 0) "
   stroke-linecap="round"
   id="path2" />
	<path
   d="M 34.084 0 H 6.27 C 3.771 0 1.738 2.033 1.738 4.531 v 22.304 c 0 0.552 0.448 1 1 1 h 34.876 c 0.552 0 1 -0.448 1 -1 V 4.531 C 38.615 2.033 36.582 0 34.084 0 z M 36.615 25.835 H 3.738 V 4.531 C 3.738 3.136 4.874 2 6.27 2 h 27.814 c 1.396 0 2.531 1.136 2.531 2.531 V 25.835 z"
   style="stroke:none;stroke-width:1;stroke-dasharray:none;stroke-linecap:butt;stroke-linejoin:miter;stroke-miterlimit:10;fill:#0a6f9f;fill-rule:nonzero;opacity:1;fill-opacity:1"
   transform=" matrix(1 0 0 1 0 0) "
   stroke-linecap="round"
   id="path3" />
	<path
   d="M 8.34 12.7 l 6.477 -5.921 c 0.408 -0.373 0.436 -1.005 0.063 -1.413 c -0.373 -0.408 -1.005 -0.437 -1.413 -0.063 L 6.99 11.224 c -0.408 0.373 -0.436 1.005 -0.063 1.413 c 0.197 0.216 0.468 0.325 0.739 0.325 C 7.906 12.962 8.148 12.875 8.34 12.7 z"
   style="stroke:none;stroke-width:1;stroke-dasharray:none;stroke-linecap:butt;stroke-linejoin:miter;stroke-miterlimit:10;fill:#0a6f9f;fill-rule:nonzero;opacity:1;fill-opacity:1"
   transform=" matrix(1 0 0 1 0 0) "
   stroke-linecap="round"
   id="path4" />
	<path
   d="M 20.417 6.218 L 7.905 17.655 c -0.408 0.373 -0.436 1.005 -0.063 1.413 c 0.197 0.216 0.468 0.325 0.739 0.325 c 0.241 0 0.482 -0.086 0.674 -0.262 L 21.766 7.694 c 0.408 -0.373 0.436 -1.005 0.063 -1.413 C 21.457 5.873 20.824 5.845 20.417 6.218 z"
   style="stroke:none;stroke-width:1;stroke-dasharray:none;stroke-linecap:butt;stroke-linejoin:miter;stroke-miterlimit:10;fill:#0a6f9f;fill-rule:nonzero;opacity:1;fill-opacity:1"
   transform=" matrix(1 0 0 1 0 0) "
   stroke-linecap="round"
   id="path5" />
	<path
   d="M 53.336 15.15 c 0.553 0 1 -0.448 1 -1 v -2.758 c 0 -0.552 -0.447 -1 -1 -1 s -1 0.448 -1 1 v 2.758 C 52.336 14.702 52.783 15.15 53.336 15.15 z"
   style="stroke:none;stroke-width:1;stroke-dasharray:none;stroke-linecap:butt;stroke-linejoin:miter;stroke-miterlimit:10;fill:#0a6f9f;fill-rule:nonzero;opacity:1;fill-opacity:1"
   transform=" matrix(1 0 0 1 0 0) "
   stroke-linecap="round"
   id="path6" />
	<path
   d="M 53.336 22.276 c 0.553 0 1 -0.448 1 -1 v -2.758 c 0 -0.552 -0.447 -1 -1 -1 s -1 0.448 -1 1 v 2.758 C 52.336 21.829 52.783 22.276 53.336 22.276 z"
   style="stroke:none;stroke-width:1;stroke-dasharray:none;stroke-linecap:butt;stroke-linejoin:miter;stroke-miterlimit:10;fill:#0a6f9f;fill-rule:nonzero;opacity:1;fill-opacity:1"
   transform=" matrix(1 0 0 1 0 0) "
   stroke-linecap="round"
   id="path7" />
	<path
   d="M 48.394 17.334 h 2.758 c 0.553 0 1 -0.448 1 -1 s -0.447 -1 -1 -1 h -2.758 c -0.553 0 -1 0.448 -1 1 S 47.841 17.334 48.394 17.334 z"
   style="stroke:none;stroke-width:1;stroke-dasharray:none;stroke-linecap:butt;stroke-linejoin:miter;stroke-miterlimit:10;fill:#0a6f9f;fill-rule:nonzero;opacity:1;fill-opacity:1"
   transform=" matrix(1 0 0 1 0 0) "
   stroke-linecap="round"
   id="path8" />
	<path
   d="M 55.521 17.334 h 2.758 c 0.553 0 1 -0.448 1 -1 s -0.447 -1 -1 -1 h -2.758 c -0.553 0 -1 0.448 -1 1 S 54.968 17.334 55.521 17.334 z"
   style="stroke:none;stroke-width:1;stroke-dasharray:none;stroke-linecap:butt;stroke-linejoin:miter;stroke-miterlimit:10;fill:#0a6f9f;fill-rule:nonzero;opacity:1;fill-opacity:1"
   transform=" matrix(1 0 0 1 0 0) "
   stroke-linecap="round"
   id="path9" />
	<path
   d="M 71.818 7.856 c 0.553 0 1 -0.448 1 -1 V 4.099 c 0 -0.552 -0.447 -1 -1 -1 s -1 0.448 -1 1 v 2.758 C 70.818 7.409 71.266 7.856 71.818 7.856 z"
   style="stroke:none;stroke-width:1;stroke-dasharray:none;stroke-linecap:butt;stroke-linejoin:miter;stroke-miterlimit:10;fill:#0a6f9f;fill-rule:nonzero;opacity:1;fill-opacity:1"
   transform=" matrix(1 0 0 1 0 0) "
   stroke-linecap="round"
   id="path10" />
	<path
   d="M 71.818 14.983 c 0.553 0 1 -0.448 1 -1 v -2.758 c 0 -0.552 -0.447 -1 -1 -1 s -1 0.448 -1 1 v 2.758 C 70.818 14.536 71.266 14.983 71.818 14.983 z"
   style="stroke:none;stroke-width:1;stroke-dasharray:none;stroke-linecap:butt;stroke-linejoin:miter;stroke-miterlimit:10;fill:#0a6f9f;fill-rule:nonzero;opacity:1;fill-opacity:1"
   transform=" matrix(1 0 0 1 0 0) "
   stroke-linecap="round"
   id="path11" />
	<path
   d="M 66.876 10.041 h 2.758 c 0.553 0 1 -0.448 1 -1 s -0.447 -1 -1 -1 h -2.758 c -0.553 0 -1 0.448 -1 1 S 66.323 10.041 66.876 10.041 z"
   style="stroke:none;stroke-width:1;stroke-dasharray:none;stroke-linecap:butt;stroke-linejoin:miter;stroke-miterlimit:10;fill:#0a6f9f;fill-rule:nonzero;opacity:1;fill-opacity:1"
   transform=" matrix(1 0 0 1 0 0) "
   stroke-linecap="round"
   id="path12" />
	<path
   d="M 74.003 10.041 h 2.758 c 0.553 0 1 -0.448 1 -1 s -0.447 -1 -1 -1 h -2.758 c -0.553 0 -1 0.448 -1 1 S 73.45 10.041 74.003 10.041 z"
   style="stroke:none;stroke-width:1;stroke-dasharray:none;stroke-linecap:butt;stroke-linejoin:miter;stroke-miterlimit:10;fill:#0a6f9f;fill-rule:nonzero;opacity:1;fill-opacity:1"
   transform=" matrix(1 0 0 1 0 0) "
   stroke-linecap="round"
   id="path13" />
</g>
</svg>
