<?xml version="1.0" encoding="UTF-8" standalone="no"?>
<svg
   version="1.1"
   width="256"
   height="256"
   viewBox="0 0 256 256"
   xml:space="preserve"
   id="svg2"
   sodipodi:docname="Organization.svg"
   inkscape:version="1.4.2 (f4327f4, 2025-05-13)"
   xmlns:inkscape="http://www.inkscape.org/namespaces/inkscape"
   xmlns:sodipodi="http://sodipodi.sourceforge.net/DTD/sodipodi-0.dtd"
   xmlns="http://www.w3.org/2000/svg"
   xmlns:svg="http://www.w3.org/2000/svg"><defs
   id="defs2" /><sodipodi:namedview
   id="namedview2"
   pagecolor="#ffffff"
   bordercolor="#000000"
   borderopacity="0.25"
   inkscape:showpageshadow="2"
   inkscape:pageopacity="0.0"
   inkscape:pagecheckerboard="0"
   inkscape:deskcolor="#d1d1d1"
   inkscape:zoom="3.0195312"
   inkscape:cx="128"
   inkscape:cy="128"
   inkscape:window-width="1920"
   inkscape:window-height="991"
   inkscape:window-x="-9"
   inkscape:window-y="-9"
   inkscape:window-maximized="1"
   inkscape:current-layer="svg2" />
<g
   style="stroke: none; stroke-width: 0; stroke-dasharray: none; stroke-linecap: butt; stroke-linejoin: miter; stroke-miterlimit: 10; fill: none; fill-rule: nonzero; opacity: 1;"
   transform="translate(1.4065934065934016 1.4065934065934016) scale(2.81 2.81)"
   id="g2">
	<path
   d="M 30.902 29.068 h 28.195 c 0.553 0 1 -0.448 1 -1 s -0.447 -1 -1 -1 H 30.902 c -0.552 0 -1 0.448 -1 1 S 30.35 29.068 30.902 29.068 z"
   style="stroke:none;stroke-width:1;stroke-dasharray:none;stroke-linecap:butt;stroke-linejoin:miter;stroke-miterlimit:10;fill:#0a6f9f;fill-rule:nonzero;opacity:1;fill-opacity:1"
   transform=" matrix(1 0 0 1 0 0) "
   stroke-linecap="round"
   id="path1" />
	<path
   d="M 89.806 20.71 L 81.644 9.603 c -0.188 -0.256 -0.487 -0.408 -0.806 -0.408 H 9.162 c -0.318 0 -0.617 0.151 -0.806 0.408 L 0.194 20.71 c -0.224 0.304 -0.257 0.708 -0.086 1.044 C 0.278 22.09 0.623 22.302 1 22.302 h 4.184 L 4.838 79.799 c -0.001 0.266 0.103 0.522 0.291 0.711 c 0.188 0.188 0.443 0.295 0.709 0.295 h 9.524 h 0 h 58.916 h 9.524 c 0.553 0 1 -0.447 1 -1 V 22.302 H 89 c 0.377 0 0.722 -0.212 0.893 -0.548 C 90.063 21.417 90.029 21.014 89.806 20.71 z M 22.771 57.804 c 0.552 0 1 -0.447 1 -1 v -6.601 h 5.41 v 13.201 H 16.362 V 50.203 h 5.409 v 6.601 C 21.771 57.356 22.219 57.804 22.771 57.804 z M 37.59 73.005 c 0.552 0 1 -0.447 1 -1 v -6.601 H 44 v 13.201 H 31.181 V 65.404 h 5.409 v 6.601 C 36.59 72.558 37.038 73.005 37.59 73.005 z M 16.362 65.404 h 5.409 v 6.601 c 0 0.553 0.448 1 1 1 s 1 -0.447 1 -1 v -6.601 h 5.41 v 13.201 H 16.362 V 65.404 z M 45 63.404 H 31.181 V 49.203 c 0 -0.553 -0.448 -1 -1 -1 H 16.362 v -5.585 h 56.916 v 36.187 H 46 v -14.4 C 46 63.852 45.552 63.404 45 63.404 z M 73.278 40.618 H 16.362 v -4.73 h 56.916 V 40.618 z M 82.803 78.805 h -7.524 V 41.618 v -6.73 c 0 -0.552 -0.447 -1 -1 -1 H 15.362 h 0 c -0.552 0 -1 0.448 -1 1 v 43.917 H 6.844 l 0.34 -56.5 l 75.619 -0.002 V 78.805 z M 2.976 20.302 l 6.692 -9.107 h 70.664 l 6.692 9.107 H 2.976 z"
   style="stroke:none;stroke-width:1;stroke-dasharray:none;stroke-linecap:butt;stroke-linejoin:miter;stroke-miterlimit:10;fill:#0a6f9f;fill-rule:nonzero;opacity:1;fill-opacity:1"
   transform=" matrix(1 0 0 1 0 0) "
   stroke-linecap="round"
   id="path2" />
</g>
</svg>
