<?xml version="1.0" encoding="UTF-8" standalone="no"?>
<svg
   version="1.1"
   width="256"
   height="256"
   viewBox="0 0 256 256"
   xml:space="preserve"
   id="svg2"
   sodipodi:docname="Facebook.svg"
   inkscape:version="1.4.2 (f4327f4, 2025-05-13)"
   xmlns:inkscape="http://www.inkscape.org/namespaces/inkscape"
   xmlns:sodipodi="http://sodipodi.sourceforge.net/DTD/sodipodi-0.dtd"
   xmlns="http://www.w3.org/2000/svg"
   xmlns:svg="http://www.w3.org/2000/svg"><defs
   id="defs2" /><sodipodi:namedview
   id="namedview2"
   pagecolor="#ffffff"
   bordercolor="#000000"
   borderopacity="0.25"
   inkscape:showpageshadow="2"
   inkscape:pageopacity="0.0"
   inkscape:pagecheckerboard="0"
   inkscape:deskcolor="#d1d1d1"
   inkscape:zoom="3.0195312"
   inkscape:cx="128"
   inkscape:cy="128"
   inkscape:window-width="1920"
   inkscape:window-height="991"
   inkscape:window-x="-9"
   inkscape:window-y="-9"
   inkscape:window-maximized="1"
   inkscape:current-layer="svg2" />
<g
   style="stroke: none; stroke-width: 0; stroke-dasharray: none; stroke-linecap: butt; stroke-linejoin: miter; stroke-miterlimit: 10; fill: none; fill-rule: nonzero; opacity: 1;"
   transform="translate(1.4065934065934016 1.4065934065934016) scale(2.81 2.81)"
   id="g2">
	<path
   id="path1"
   style="stroke: none; stroke-width: 1; stroke-dasharray: none; stroke-linecap: butt; stroke-linejoin: miter; stroke-miterlimit: 10; fill: rgb(253,254,253); fill-rule: nonzero; opacity: 1;"
   d="M 4.9667928 -0.00012220875 C 2.2227928 -0.00012220875 -0.00012220875 2.2227928 -0.00012220875 4.9667928 L -0.00012220875 85.033102 C -0.00012220875 87.776102 2.2227928 90.000017 4.9667928 90.000017 L 85.033102 90.000017 C 87.776102 90.000017 90.000017 87.776102 90.000017 85.033102 L 90.000017 4.9667928 C 90.000017 2.2227928 87.776102 -0.00012220875 85.033102 -0.00012220875 L 4.9667928 -0.00012220875 z M 54.360003 6.7968918 C 59.328003 6.7968918 63.596848 7.1660898 64.840848 7.3320898 L 64.840848 19.481083 L 57.648343 19.483864 C 52.009343 19.483864 50.916665 22.162991 50.916665 26.095991 L 50.916665 34.768283 L 64.366815 34.768283 L 62.615258 48.35119 L 50.91597 48.35119 L 50.91597 83.203698 L 36.888918 83.203698 L 36.888918 48.35119 L 25.159742 48.35119 L 25.159742 34.768283 L 36.890308 34.768283 L 36.890308 24.751045 C 36.890308 13.127045 43.990003 6.7968918 54.360003 6.7968918 z "
   transform=" matrix(1 0 0 1 0 0) " />
	
</g>
</svg>
