<?xml version="1.0" encoding="UTF-8" standalone="no"?>
<svg
   version="1.1"
   width="256"
   height="256"
   viewBox="0 0 256 256"
   xml:space="preserve"
   id="svg2"
   sodipodi:docname="Instagram 2.svg"
   inkscape:version="1.4.2 (f4327f4, 2025-05-13)"
   xmlns:inkscape="http://www.inkscape.org/namespaces/inkscape"
   xmlns:sodipodi="http://sodipodi.sourceforge.net/DTD/sodipodi-0.dtd"
   xmlns="http://www.w3.org/2000/svg"
   xmlns:svg="http://www.w3.org/2000/svg"><defs
   id="defs2" /><sodipodi:namedview
   id="namedview2"
   pagecolor="#ffffff"
   bordercolor="#000000"
   borderopacity="0.25"
   inkscape:showpageshadow="2"
   inkscape:pageopacity="0.0"
   inkscape:pagecheckerboard="0"
   inkscape:deskcolor="#d1d1d1"
   inkscape:zoom="3.0195312"
   inkscape:cx="128"
   inkscape:cy="128"
   inkscape:window-width="1920"
   inkscape:window-height="991"
   inkscape:window-x="-9"
   inkscape:window-y="-9"
   inkscape:window-maximized="1"
   inkscape:current-layer="svg2" />
<g
   style="stroke: none; stroke-width: 0; stroke-dasharray: none; stroke-linecap: butt; stroke-linejoin: miter; stroke-miterlimit: 10; fill: none; fill-rule: nonzero; opacity: 1;"
   transform="translate(1.4065934065934016 1.4065934065934016) scale(2.81 2.81)"
   id="g2">
	<path
   d="M 62.263 90 H 27.738 C 12.443 90 0 77.557 0 62.263 V 27.738 C 0 12.443 12.443 0 27.738 0 h 34.525 C 77.557 0 90 12.443 90 27.738 v 34.525 C 90 77.557 77.557 90 62.263 90 z M 27.738 7 C 16.303 7 7 16.303 7 27.738 v 34.525 C 7 73.697 16.303 83 27.738 83 h 34.525 C 73.697 83 83 73.697 83 62.263 V 27.738 C 83 16.303 73.697 7 62.263 7 H 27.738 z"
   style="stroke:none;stroke-width:1;stroke-dasharray:none;stroke-linecap:butt;stroke-linejoin:miter;stroke-miterlimit:10;fill:#fdfefd;fill-rule:nonzero;opacity:1;fill-opacity:1"
   transform=" matrix(1 0 0 1 0 0) "
   stroke-linecap="round"
   id="path1" />
	<path
   d="M 45.255 70.47 c -13.904 0 -25.215 -11.312 -25.215 -25.215 S 31.352 20.04 45.255 20.04 s 25.215 11.312 25.215 25.215 S 59.159 70.47 45.255 70.47 z M 45.255 27.04 c -10.044 0 -18.215 8.171 -18.215 18.215 c 0 10.044 8.171 18.215 18.215 18.215 c 10.044 0 18.215 -8.171 18.215 -18.215 C 63.471 35.211 55.3 27.04 45.255 27.04 z"
   style="stroke:none;stroke-width:1;stroke-dasharray:none;stroke-linecap:butt;stroke-linejoin:miter;stroke-miterlimit:10;fill:#fdfefd;fill-rule:nonzero;opacity:1;fill-opacity:1"
   transform=" matrix(1 0 0 1 0 0) "
   stroke-linecap="round"
   id="path2" />
	<circle
   cx="70.557"
   cy="19.936999999999998"
   r="4.897"
   style="stroke:none;stroke-width:1;stroke-dasharray:none;stroke-linecap:butt;stroke-linejoin:miter;stroke-miterlimit:10;fill:#fdfefd;fill-rule:nonzero;opacity:1;fill-opacity:1"
   transform="  matrix(1 0 0 1 0 0) "
   id="circle2" />
</g>
</svg>
