<?xml version="1.0" encoding="UTF-8" standalone="no"?>
<!-- Created with Inkscape (http://www.inkscape.org/) -->

<svg
   width="25mm"
   height="25mm"
   viewBox="0 0 25 25"
   version="1.1"
   id="svg1"
   xml:space="preserve"
   inkscape:version="1.4.2 (f4327f4, 2025-05-13)"
   sodipodi:docname="Always_Clean_Pic_Logo.svg"
   xmlns:inkscape="http://www.inkscape.org/namespaces/inkscape"
   xmlns:sodipodi="http://sodipodi.sourceforge.net/DTD/sodipodi-0.dtd"
   xmlns="http://www.w3.org/2000/svg"
   xmlns:svg="http://www.w3.org/2000/svg"><sodipodi:namedview
     id="namedview1"
     pagecolor="#ffffff"
     bordercolor="#000000"
     borderopacity="0.25"
     inkscape:showpageshadow="2"
     inkscape:pageopacity="0.0"
     inkscape:pagecheckerboard="0"
     inkscape:deskcolor="#d1d1d1"
     inkscape:document-units="mm"
     inkscape:zoom="5.5090348"
     inkscape:cx="51.18864"
     inkscape:cy="49.28268"
     inkscape:window-width="1920"
     inkscape:window-height="991"
     inkscape:window-x="-9"
     inkscape:window-y="-9"
     inkscape:window-maximized="1"
     inkscape:current-layer="layer1" /><defs
     id="defs1"><inkscape:path-effect
       effect="powerstroke"
       message=""
       id="path-effect9"
       is_visible="true"
       lpeversion="1.3"
       scale_width="1"
       interpolator_type="CentripetalCatmullRom"
       interpolator_beta="0.2"
       start_linecap_type="square"
       end_linecap_type="zerowidth"
       offset_points="0.20579262,2.5846238 | 3.4346742,1.3270153 | 6.1320327,0.51017537"
       linejoin_type="round"
       miter_limit="4"
       not_jump="false"
       sort_points="true" /></defs><g
     inkscape:label="Logo"
     inkscape:groupmode="layer"
     id="layer1"
     transform="translate(-34.501042,-37.575781)"><g
       id="g3"
       transform="matrix(0.63068687,0,0,0.63068687,38.423159,38.291706)"
       style="display:inline;opacity:1;fill:none"><path
         d="m 6.344,20.208 h 8.608 c -0.064,0.5973 -0.2667,1.056 -0.608,1.376 -0.3413,0.2987 -0.7467,0.5013 -1.216,0.608 -0.448,0.1067 -0.896,0.1707 -1.344,0.192 L 5.64,22.608 Z"
         id="path1"
         style="display:none;fill:#000000;fill-opacity:1;stroke:#ffffff;stroke-opacity:1" /><path
         d="m 12.264,7.376 c -0.4267,1.06667 -0.9493,2.31467 -1.568,3.744 -0.5973,1.408 -1.23733,2.9333 -1.92,4.576 -0.68267,1.6427 -1.36533,3.3387 -2.048,5.088 -0.66133,1.7493 -1.28,3.4987 -1.856,5.248 -0.576,1.728 -1.056,3.4027 -1.44,5.024 -0.68267,-0.2987 -1.216,-0.5867 -1.6,-0.864 -0.384,-0.2773 -0.65067,-0.544 -0.8,-0.8 -0.128,-0.2773 -0.192,-0.544 -0.192,-0.8 0,-0.2773 0.18133,-0.864 0.544,-1.76 0.36267,-0.896 0.84267,-2.0053 1.44,-3.328 0.59733,-1.3227 1.25867,-2.7733 1.984,-4.352 0.74667,-1.6 1.49333,-3.232 2.24,-4.896 0.768,-1.664 1.48267,-3.2747 2.144,-4.832 0.66133,-1.57867 1.216,-2.99733 1.664,-4.256 z"
         id="path2"
         style="fill:#bf2b7f;fill-opacity:1;stroke:#ffffff;stroke-opacity:1" /><path
         d="M 16.136,27.952 C 15.9867,27.504 15.8053,26.8213 15.592,25.904 15.3787,24.9653 15.144,23.8773 14.888,22.64 14.632,21.3813 14.3547,20.0587 14.056,18.672 13.7573,17.264 13.448,15.8667 13.128,14.48 12.808,13.072 12.4773,11.76 12.136,10.544 11.816,9.30667 11.496,8.24 11.176,7.344 10.8987,6.59733 10.5893,6.032 10.248,5.648 9.928,5.24267 9.65067,4.90133 9.416,4.624 9.75733,4.496 10.088,4.4 10.408,4.336 10.728,4.272 11.0267,4.24 11.304,4.24 c 0.768,0 1.3973,0.23466 1.888,0.704 0.512,0.448 0.9387,1.10933 1.28,1.984 0.3627,0.85333 0.6827,1.89867 0.96,3.136 0.2987,1.216 0.608,2.6027 0.928,4.16 0.448,2.0693 0.864,4.0853 1.248,6.048 0.4053,1.9627 0.864,3.7547 1.376,5.376 0.512,1.6213 1.1307,2.944 1.856,3.968 -0.4267,0.256 -0.8747,0.4693 -1.344,0.64 -0.4693,0.1707 -0.864,0.256 -1.184,0.256 -0.6613,0 -1.1307,-0.2133 -1.408,-0.64 -0.2773,-0.448 -0.5333,-1.088 -0.768,-1.92 z"
         id="path3"
         style="fill:#bf2b7f;fill-opacity:1;stroke:none;stroke-opacity:1" /></g><path
       d="m 151.41153,111.25972 c 0.94384,0 1.85601,0.30405 2.73651,0.91217 0.94384,0.60811 1.41893,1.21622 1.41893,1.82434 -3.04057,6.08112 -7.12949,10.87856 -12.26361,14.392 -5.06761,3.44597 -10.57546,5.16895 -16.52039,5.16895 -5.47302,0 -10.23657,-1.48639 -14.29066,-4.45949 -4.05408,-3.04056 -7.196,-7.29735 -9.42574,-12.77037 -2.22975,-5.47301 -3.344621,-11.95955 -3.344621,-19.459602 0,-7.027188 0.912171,-13.445943 2.736511,-19.256905 1.82433,-5.810959 4.38981,-10.810881 7.70276,-15.000112 3.37629,-4.25679 7.36386,-7.533851 11.95955,-9.831157 4.59252,-2.297303 9.66012,-3.445971 15.20281,-3.445971 6.41686,0 11.48447,1.655428 15.20282,4.966254 3.7817,3.310824 5.67571,7.770318 5.67571,13.378479 0,2.905322 -0.54158,5.473016 -1.62162,7.702761 -1.0832,2.229746 -2.60348,3.986624 -4.56085,5.27031 -1.89402,1.283688 -4.08892,1.92569 -6.58789,1.92569 -0.5416,0 -1.18455,-0.06745 -1.92569,-0.202696 -0.7443,-0.135244 -1.58996,-0.337945 -2.5338,-0.608113 1.14655,-1.216224 2.16007,-2.702616 3.04056,-4.459494 0.87733,-1.756875 1.55196,-3.614786 2.02705,-5.574365 0.53843,-1.959581 0.81081,-3.817491 0.81081,-5.574367 0,-3.513529 -0.91217,-6.216274 -2.7365,-8.10817 -1.75783,-1.891896 -4.22512,-2.837858 -7.39871,-2.837858 -3.58216,0 -6.96162,1.114871 -10.13521,3.344618 -3.11024,2.16219 -5.87842,5.202754 -8.31087,9.121691 -2.36594,3.85138 -4.22512,8.344765 -5.57437,13.479834 -1.35242,5.067604 -2.02704,10.50673 -2.02704,16.317689 0,5.945884 0.77598,11.114844 2.3311,15.506874 1.55195,4.39203 3.75002,7.77022 6.58788,10.13521 2.83786,2.36499 6.18248,3.54733 10.03386,3.54733 4.18711,0 8.2412,-1.38504 12.16226,-4.15544 3.91789,-2.7704 7.12632,-6.52042 9.62845,-11.25009 z"
       id="path4"
       style="display:inline;opacity:1;fill:#d957a0;fill-opacity:1;stroke:#ffffff;stroke-width:3.16725;stroke-opacity:1"
       transform="matrix(0.19912735,0,0,0.19912735,27.63401,31.58556)" /><path
       d="m 16.136,27.952 c -0.1493,-0.448 -0.3307,-1.1307 -0.544,-2.048 -1.496664,-6.166239 1.956432,-8.885832 1.956432,-8.885832 -0.361975,1.235772 1.317749,11.285348 3.76335,12.254717 0.771892,0.286247 -0.17136,1.562938 -0.172481,1.562938 -3.259929,0 -3.296305,0.808278 -4.334801,-0.897489 C 16.5272,29.490334 16.3707,28.784 16.136,27.952 Z"
       id="path6"
       style="display:inline;opacity:1;fill:#d957a0;fill-opacity:1;stroke:none;stroke-opacity:1"
       transform="matrix(0.63068687,0,0,0.63068687,38.423159,38.291706)"
       sodipodi:nodetypes="ccccscc" /><path
       style="display:none;opacity:1;fill:#d957a0;fill-opacity:1;stroke:#d957a0;stroke-width:0.2;stroke-dasharray:none;stroke-opacity:1"
       d="m 108.04142,61.916101 c 0.25401,0.942525 1.8045,1.232585 3.76715,1.322122 1.90183,0.08676 4.05854,-1.192851 5.40074,-3.390967 -2.35011,4.60606 -8.16649,4.91449 -8.8799,3.101024 z"
       id="path12"
       sodipodi:nodetypes="csccc"
       inkscape:transform-center-x="4.6576412"
       inkscape:transform-center-y="1.6513367"
       transform="translate(-59.038773,-5.6261935)" /><path
       style="display:inline;opacity:1;fill:#d957a0;fill-opacity:1;fill-rule:nonzero;stroke:none;stroke-width:1.59686;stroke-dasharray:none;stroke-opacity:1"
       d="m 106.98507,98.522965 c -1.5103,-0.944488 -1.80194,-1.168566 -5.49363,-3.564819 -1.13857,-0.739042 -2.703917,-1.747531 -4.419058,-2.810896 -0.776846,-0.481634 -1.674069,-1.030314 -2.651172,-1.61237 -3.576259,-2.130364 -10.104376,-5.858934 -17.119966,-8.318718 -2.861818,-1.0034 -6.022551,-1.877845 -9.296488,-2.338708 -2.97889,-0.41933 -6.144066,-0.509705 -9.319752,0.01281 -2.963576,0.487613 -5.959804,1.513089 -8.818222,3.325061 -2.701401,1.712437 -5.246858,4.106455 -7.518348,7.357907 a 0.52511983,1.7222801 48.661224 0 0 -0.147048,0.238045 c -2.150441,4.075254 -3.476059,8.457684 -3.836695,12.999276 -0.338836,4.26706 0.182034,8.60091 1.600087,12.80709 2.698142,8.00313 8.586868,15.33758 17.294873,20.44516 1.5913,1.05737 3.643869,1.89238 5.849847,2.48636 2.277341,0.6132 4.789321,0.98891 7.279388,1.07168 2.541347,0.0845 5.07287,-0.13524 7.35106,-0.72609 1.168355,-0.30301 2.274762,-0.70476 3.286328,-1.21644 1.035363,-0.52372 1.972126,-1.16305 2.772713,-1.92908 0.937639,-0.91658 1.713787,-2.05298 2.330992,-3.20799 0.493992,-0.92443 0.901511,-1.88891 1.226167,-2.83119 0.119139,-0.34579 0.229811,-0.69634 0.331325,-1.04986 0.381501,-1.32858 0.636367,-2.70901 0.719668,-4.03344 0.08145,-1.29505 7.41e-4,-2.56978 -0.311184,-3.68847 -0.596186,-2.22663 -1.650224,-3.97992 -2.954437,-5.23044 -1.303487,-1.24983 -2.842146,-1.9821 -4.371653,-2.1793 -0.769397,-0.0992 -1.534359,-0.0626 -2.261548,0.11058 -0.733497,0.17468 -1.423214,0.48705 -2.035829,0.93198 -0.619365,0.44983 -1.150593,1.02828 -1.569337,1.72116 -0.423917,0.70144 -0.727678,1.51171 -0.898609,2.41584 -0.185524,0.97741 -0.104951,1.97403 0.146162,2.94554 0.255675,0.98916 0.693623,1.97423 1.238908,2.92492 1.12745,1.9657 2.767558,3.87804 4.448589,5.52754 1.804041,1.7702 3.714877,3.29821 5.335296,4.42496 0.870729,0.60545 1.671966,1.10557 2.367518,1.48971 0.362628,0.20027 0.698694,0.37025 1.00471,0.50891 0.315046,0.14275 0.602336,0.25417 0.858314,0.33172 1.021546,0.32428 1.957999,0.54227 2.803992,0.68489 2.565842,0.43255 4.634864,0.22782 6.157577,-0.15702 1.186983,-0.29998 2.067812,-0.71483 2.657572,-1.06474 0.36385,-0.21587 0.63797,-0.41913 0.83597,-0.58646 0.26686,-0.22555 0.41616,-0.40279 0.4968,-0.5126 -0.10507,0.0832 -0.29387,0.21735 -0.5876,0.38205 -0.21859,0.12255 -0.51509,0.27293 -0.89014,0.42862 -0.60807,0.25243 -1.49472,0.5487 -2.641194,0.73179 -1.472412,0.23515 -3.433123,0.29336 -5.837442,-0.22385 -0.794288,-0.17087 -1.674495,-0.41268 -2.635255,-0.75464 -0.19433,-0.0739 -0.429813,-0.1798 -0.707442,-0.32226 -0.268125,-0.13758 -0.570326,-0.3066 -0.903956,-0.50776 -0.640135,-0.38597 -1.391034,-0.8874 -2.215985,-1.4953 -1.536544,-1.13227 -3.355176,-2.65412 -5.058358,-4.39676 -1.597139,-1.63414 -3.092267,-3.464 -4.079649,-5.27755 -0.47556,-0.87348 -0.824786,-1.72803 -1.012821,-2.53929 -0.184241,-0.7949 -0.209656,-1.52997 -0.06378,-2.196 0.155468,-0.71441 0.4078,-1.31211 0.725005,-1.79987 0.312657,-0.48077 0.691057,-0.85909 1.111154,-1.14129 0.416033,-0.27946 0.880159,-0.46947 1.373992,-0.56792 0.490939,-0.0979 1.01413,-0.10589 1.550081,-0.0175 1.064365,0.17551 2.179369,0.7328 3.14684,1.71701 0.964571,0.98126 1.785183,2.39113 2.240797,4.26433 0.182211,0.80948 0.215035,1.80839 0.0975,2.91586 -0.119061,1.12187 -0.387633,2.31102 -0.773297,3.46472 -0.102111,0.30547 -0.212102,0.60748 -0.32925,0.90434 -0.32036,0.81181 -0.70951,1.62355 -1.162373,2.37981 -0.574142,0.95879 -1.231035,1.79448 -1.928772,2.39744 -0.578017,0.51585 -1.27769,0.96689 -2.094677,1.34727 -0.799308,0.37214 -1.702062,0.67243 -2.692531,0.89751 -1.939365,0.44072 -4.156671,0.57938 -6.44068,0.43826 -2.234896,-0.13808 -4.470743,-0.54074 -6.457095,-1.14274 -1.99018,-0.60316 -3.632388,-1.37722 -4.743026,-2.20089 a 0.30250725,0.01754517 29.603152 0 0 -0.12056,-0.0781 C 51.29211,129.0316 46.186002,122.33173 43.951503,115.30891 c -1.174014,-3.68981 -1.554521,-7.44817 -1.200974,-11.11561 0.371366,-3.85227 1.548161,-7.57832 3.435405,-11.067844 1.951305,-2.712295 4.052474,-4.607521 6.180381,-5.922766 2.280224,-1.409392 4.669793,-2.201092 7.073954,-2.568069 2.592639,-0.395745 5.25073,-0.304158 7.857507,0.09108 2.865762,0.434504 5.694211,1.240064 8.330541,2.192775 6.496154,2.347565 12.638738,5.910286 16.14217,8.031082 0.941989,0.570231 1.811109,1.109522 2.565582,1.583319 1.651323,1.037005 3.215963,2.051495 4.328695,2.775342 3.075946,2.000942 4.626666,3.001702 5.579446,3.597542 l 2.1914,1.37042 2.74085,-4.382789 z"
       id="path5"
       sodipodi:nodetypes="cccsszsc"
       inkscape:transform-center-x="23.156579"
       inkscape:transform-center-y="-4.4812"
       inkscape:original-d="M 105.61464,100.71436 C 93.14942,92.919024 60.808224,68.388913 44.230647,91.900369 c -8.470968,15.783561 -2.265178,33.865161 14.028386,43.557081 5.4348,3.81959 18.945296,5.39333 24.527464,0.20288 3.166615,-2.94441 5.179697,-9.60424 4.196578,-13.43656 -2.106779,-8.21248 -10.804979,-8.86147 -12.119641,-2.34246 -1.314662,6.51901 11.060962,16.21407 14.720745,17.44411 7.226019,2.42864 11.762411,-0.0535 12.771771,-1.09995"
       inkscape:path-effect="#path-effect9"
       transform="matrix(0.19912735,0,0,0.19912735,27.63401,31.58556)" /><path
       style="display:inline;opacity:1;fill:#d957a0;fill-opacity:1;stroke:none;stroke-width:0.11232;stroke-dasharray:none;stroke-opacity:1"
       d="m 42.867472,43.367806 c -1.469338,0.0022 -1.997972,1.269053 -2.00119,2.80673 -0.0032,-1.537677 -0.531853,-2.804607 -2.00119,-2.80673 1.469337,-0.0022 1.997972,-1.269053 2.00119,-2.80673 0.0032,1.537677 0.531852,2.804599 2.00119,2.80673 z"
       id="path10"
       sodipodi:nodetypes="ccccc"
       inkscape:label="star" /></g></svg>
