<?xml version="1.0" encoding="UTF-8" standalone="no"?>
<!-- Created with Inkscape (http://www.inkscape.org/) -->

<svg
   width="144.46249mm"
   height="6.6145835mm"
   viewBox="0 0 144.46249 6.6145835"
   version="1.1"
   id="svg1"
   xml:space="preserve"
   inkscape:version="1.4.2 (f4327f4, 2025-05-13)"
   sodipodi:docname="Decorative_Line.svg"
   xmlns:inkscape="http://www.inkscape.org/namespaces/inkscape"
   xmlns:sodipodi="http://sodipodi.sourceforge.net/DTD/sodipodi-0.dtd"
   xmlns="http://www.w3.org/2000/svg"
   xmlns:svg="http://www.w3.org/2000/svg"><sodipodi:namedview
     id="namedview1"
     pagecolor="#ffffff"
     bordercolor="#000000"
     borderopacity="0.25"
     inkscape:showpageshadow="2"
     inkscape:pageopacity="0.0"
     inkscape:pagecheckerboard="0"
     inkscape:deskcolor="#d1d1d1"
     inkscape:document-units="mm"
     inkscape:zoom="1.4142136"
     inkscape:cx="225.92061"
     inkscape:cy="95.812966"
     inkscape:window-width="1920"
     inkscape:window-height="991"
     inkscape:window-x="-9"
     inkscape:window-y="-9"
     inkscape:window-maximized="1"
     inkscape:current-layer="layer1" /><defs
     id="defs1"><inkscape:path-effect
       effect="mirror_symmetry"
       start_point="72.881697,0.8150325"
       end_point="72.881697,3.4595983"
       center_point="72.881697,2.1373154"
       id="path-effect5"
       is_visible="true"
       lpeversion="1.2"
       lpesatellites=""
       mode="free"
       discard_orig_path="false"
       fuse_paths="false"
       oposite_fuse="false"
       split_items="false"
       split_open="false"
       link_styles="false" /><inkscape:path-effect
       effect="mirror_symmetry"
       start_point="74.360716,0.7249816"
       end_point="74.360716,3.3695474"
       center_point="74.360716,2.0472645"
       id="path-effect4"
       is_visible="true"
       lpeversion="1.2"
       lpesatellites=""
       mode="free"
       discard_orig_path="false"
       fuse_paths="false"
       oposite_fuse="false"
       split_items="false"
       split_open="false"
       link_styles="false" /><inkscape:path-effect
       effect="fill_between_many"
       method="originald"
       linkedpaths="#path3,0,1|"
       id="path-effect3" /><inkscape:path-effect
       effect="mirror_symmetry"
       start_point="72.881697,0.8150325"
       end_point="72.881697,3.4595983"
       center_point="72.881697,2.1373154"
       id="path-effect5-2"
       is_visible="true"
       lpeversion="1.2"
       lpesatellites=""
       mode="free"
       discard_orig_path="false"
       fuse_paths="false"
       oposite_fuse="false"
       split_items="false"
       split_open="false"
       link_styles="false" /></defs><g
     inkscape:label="Layer 1"
     inkscape:groupmode="layer"
     id="layer1"
     transform="translate(-0.72306228,-0.83011097)"><path
       id="path3"
       style="display:inline;fill:#c4f5ff;stroke:#c4f5ff;stroke-width:0.1;stroke-opacity:1;fill-opacity:1"
       d="m 72.876953,0.82226562 c -0.393184,-0.015323 -0.802286,0.22684788 -0.785156,0.77539058 -0.453266,-0.2908668 -0.636719,0.3847657 -0.636719,0.3847657 1.001595,0.5067874 0.735354,1.0437147 1.421875,1.4765625 z m 0.0098,0 -0.002,2.63671878 c 0.686521,-0.4328478 0.422233,-0.9697751 1.423828,-1.4765625 0,0 -0.183453,-0.6756326 -0.636719,-0.3847657 0.01713,-0.5485427 -0.391972,-0.79071356 -0.785156,-0.77539058 z"
       transform="matrix(1.0014584,0.03663146,-0.04079365,0.89927918,0.1028553,-2.5401812)"
       sodipodi:nodetypes="ccccccccccc" /><path
       id="path10"
       style="display:inline;fill:none;fill-opacity:1;stroke:#c4f5ff;stroke-width:0.50271;stroke-dasharray:none;stroke-opacity:1"
       d="M 68.462269,3.7031353 0.72885909,3.9133526 Z M 0.72571561,3.9154136 68.420878,4.6181989 Z" /><path
       id="path11"
       style="display:inline;fill:none;fill-opacity:1;stroke:#c4f5ff;stroke-width:0.503403;stroke-dasharray:none;stroke-opacity:1"
       d="M 77.446347,3.7018743 145.17989,3.912671 Z M 145.18303,3.9147377 77.487738,4.6194599 Z" /><rect
       style="fill:#c4f5ff;fill-opacity:1;stroke:#c4f5ff;stroke-width:0.115585;stroke-dasharray:none;stroke-opacity:1"
       id="rect12"
       width="1.1844146"
       height="1.1844145"
       x="53.919865"
       y="-49.253105"
       transform="rotate(45)" /><path
       id="path13"
       style="display:inline;fill:#c4f5ff;stroke:#c4f5ff;stroke-width:0.0949782;fill-opacity:1;stroke-opacity:1"
       d="M 76.270463,4.2264132 C 76.298645,3.8332808 76.095852,3.4137032 75.601931,3.4084811 75.880106,2.9664195 75.279244,2.7551375 75.279244,2.7551375 74.78681,3.7375195 74.313716,3.448987 73.899316,4.1188518 Z m -3.59e-4,0.00981 -2.371073,-0.1095643 c 0.364102,0.7051796 0.856631,0.4624094 1.275685,1.4861388 0,0 0.614302,-0.156159 0.369335,-0.6219515 0.492666,0.039532 0.725431,-0.3602876 0.726054,-0.7546701 z"
       sodipodi:nodetypes="ccccccccccc" /><path
       id="path14"
       style="display:inline;fill:#c4f5ff;stroke:#c4f5ff;stroke-width:0.0949782;fill-opacity:1;stroke-opacity:1"
       d="m 69.656976,4.2264132 c -0.02818,-0.3931324 0.174611,-0.81271 0.668532,-0.8179321 -0.278175,-0.4420616 0.322687,-0.6533436 0.322687,-0.6533436 0.492434,0.982382 0.965528,0.6938495 1.379928,1.3637143 z m 3.59e-4,0.00981 2.371073,-0.1095643 c -0.364102,0.7051796 -0.856631,0.4624094 -1.275685,1.4861388 0,0 -0.614302,-0.156159 -0.369335,-0.6219515 -0.492666,0.039532 -0.725431,-0.3602876 -0.726054,-0.7546701 z"
       sodipodi:nodetypes="ccccccccccc" /><path
       id="path15"
       style="display:inline;fill:#c4f5ff;stroke:#c4f5ff;stroke-width:0.0949782;fill-opacity:1;stroke-opacity:1"
       d="M 73.052726,7.3800156 C 72.659593,7.4081981 72.240016,7.2054049 72.234794,6.7114844 71.792732,6.9896586 71.58145,6.3887965 71.58145,6.3887965 72.563832,5.8963633 72.2753,5.4232686 72.945164,5.0088692 Z m 0.0098,-3.59e-4 -0.109564,-2.3710731 c 0.705179,0.3641028 0.462409,0.8566316 1.486139,1.2756851 0,0 -0.156159,0.6143024 -0.621952,0.3693357 0.03953,0.4926655 -0.360287,0.7254307 -0.75467,0.726054 z"
       sodipodi:nodetypes="ccccccccccc" /></g></svg>
