<?xml version="1.0" encoding="UTF-8" standalone="no"?>
<!-- Created with Inkscape (http://www.inkscape.org/) -->

<svg
   width="86.340965mm"
   height="86.340965mm"
   viewBox="0 0 86.340965 86.340965"
   version="1.1"
   id="svg1"
   xml:space="preserve"
   sodipodi:docname="Fully_Insured.svg"
   inkscape:version="1.4.2 (f4327f4, 2025-05-13)"
   xmlns:inkscape="http://www.inkscape.org/namespaces/inkscape"
   xmlns:sodipodi="http://sodipodi.sourceforge.net/DTD/sodipodi-0.dtd"
   xmlns="http://www.w3.org/2000/svg"
   xmlns:svg="http://www.w3.org/2000/svg"><sodipodi:namedview
     id="namedview1"
     pagecolor="#ffffff"
     bordercolor="#000000"
     borderopacity="0.25"
     inkscape:showpageshadow="2"
     inkscape:pageopacity="0.0"
     inkscape:pagecheckerboard="0"
     inkscape:deskcolor="#d1d1d1"
     inkscape:document-units="mm"
     inkscape:zoom="1.3772587"
     inkscape:cx="263.93008"
     inkscape:cy="165.1832"
     inkscape:window-width="1920"
     inkscape:window-height="991"
     inkscape:window-x="-9"
     inkscape:window-y="-9"
     inkscape:window-maximized="1"
     inkscape:current-layer="g5" /><defs
     id="defs1"><rect
       x="318.02304"
       y="303.50143"
       width="242.51073"
       height="243.96288"
       id="rect1" /></defs><g
     inkscape:label="Layer 1"
     inkscape:groupmode="layer"
     id="layer1"
     transform="translate(-26.428863,-179.69125)"><g
       id="g5"
       transform="matrix(0.4772113,0,0,0.4772113,15.641745,137.2536)"><circle
         style="opacity:1;fill:none;fill-opacity:1;stroke:#53b021;stroke-width:5.51346;stroke-dasharray:none;stroke-opacity:1"
         id="path2"
         cx="113.06857"
         cy="179.3925"
         r="83.88298"
         inkscape:label="path2" /><circle
         style="fill:none;fill-opacity:1;stroke:#53b021;stroke-width:3.35683;stroke-dasharray:none;stroke-opacity:1"
         id="circle2"
         cx="113.06857"
         cy="179.3925"
         r="51.07159" /><path
         inkscape:connector-curvature="0"
         id="path3368"
         d="m 98.06618,207.57441 c -2.099624,-2.98102 -4.554107,-5.66961 -6.946448,-8.41263 -4.756528,-4.30466 -11.251164,-7.86573 -12.949402,-8.75754 l 1.523793,-7.33342 1.523793,-7.58601 0.148446,-0.27873 c 5.468188,2.13183 9.123546,7.05834 12.225802,11.79711 12.381796,-14.27035 26.100976,-25.32335 41.545776,-35.96223 l 5.61057,7.01014 6.35185,8.04542 0.86646,1.17971 -6.11975,3.54824 c -16.1042,9.04118 -30.85177,21.10717 -43.573424,36.91957 z"
         style="fill:#53b021;fill-opacity:1;stroke-width:0.0983088"
         sodipodi:nodetypes="cccccccccccccc"
         inkscape:label="checkmark" /><g
         id="g1"
         transform="matrix(0.96077128,0,0,0.93980991,5.0778073,9.3736002)"
         inkscape:label="Text"><path
           style="font-weight:bold;font-size:29.5637px;font-family:'Times New Roman';-inkscape-font-specification:'Times New Roman,  Bold';fill:#53b021;stroke:#53b021;stroke-width:0.648583;stroke-opacity:1;fill-opacity:1"
           d="m 42.865481,142.05178 6.193635,4.06 0.272688,-0.45211 q 0.629257,-1.04339 0.727553,-1.9009 0.09844,-0.85764 -0.34068,-1.77617 -0.431994,-0.93019 -1.560124,-1.86384 l 0.244709,-0.40568 7.57249,4.96376 -0.244709,0.40578 q -2.278949,-1.18654 -3.551547,-0.64581 -1.27673,0.52185 -2.024839,1.76225 l -0.272677,0.45209 4.61466,3.02492 q 1.156438,0.7581 1.522461,0.82009 0.373017,0.0507 0.826137,-0.18635 0.448985,-0.25564 0.847527,-0.91648 l 0.314628,-0.52158 0.411428,0.26967 -4.957164,8.21905 -0.41143,-0.26975 0.314633,-0.52162 q 0.412517,-0.68401 0.430696,-1.25433 0.02619,-0.40347 -0.254071,-0.81362 -0.189954,-0.30242 -1.324156,-1.04595 l -9.918745,-6.5018 q -1.156441,-0.75804 -1.522465,-0.82003 -0.366026,-0.0619 -0.815015,0.19366 -0.453116,0.23674 -0.851653,0.8975 l -0.314632,0.52171 -0.411422,-0.2697 7.998581,-13.26192 4.325539,2.83553 -0.28666,0.47539 q -1.62127,-0.83645 -2.760693,-0.64513 -1.132435,0.17969 -2.194762,1.24646 -0.586299,0.58633 -1.718969,2.46422 z m 18.383267,-17.31805 7.095534,6.76433 q 1.037189,0.9889 1.476185,1.03625 0.429308,0.0379 1.037866,-0.51378 l 0.348974,0.33286 -3.377194,3.85017 -1.211658,-1.15516 q 0.181574,1.41628 -0.05358,2.43534 -0.244933,1.00978 -0.980637,1.8484 -0.700263,0.7984 -1.715108,0.98133 -1.015671,0.16362 -1.831892,-0.22476 -0.816205,-0.3884 -2.386535,-1.8855 l -3.596222,-3.42822 q -1.027496,-0.97959 -1.456807,-1.0177 -0.420436,-0.0487 -1.047564,0.50413 l -0.358654,-0.3418 3.377194,-3.85004 6.194053,5.90485 q 0.969338,0.92397 1.330218,1.10102 0.369739,0.16706 0.692421,0.10352 0.331555,-0.0733 0.570876,-0.3466 0.319097,-0.36373 0.391981,-0.83222 0.102475,-0.64468 -0.166853,-1.94059 l -4.846685,-4.62053 q -1.027496,-0.97937 -1.456807,-1.01751 -0.42044,-0.0487 -1.04756,0.50445 l -0.358655,-0.342 z m 4.841416,-11.28794 9.049115,12.81397 q 0.770959,1.09169 1.232307,1.21373 0.45354,0.11105 1.193396,-0.3889 l 0.28034,0.3971 -5.341683,4.09976 -0.280365,-0.39683 q 0.640239,-0.52563 0.692794,-1.14391 0.0325,-0.41607 -0.738526,-1.50775 L 64.63921,117.85845 q -0.763168,-1.08066 -1.216718,-1.19166 -0.461342,-0.12208 -1.190606,0.3695 l -0.288145,-0.40786 z m 8.131175,-5.19811 7.564602,13.82004 q 0.64449,1.17734 1.089164,1.3544 0.438174,0.16507 1.228564,-0.24229 l 0.234372,0.42839 -5.761245,3.42721 -0.234372,-0.42802 q 0.694311,-0.44459 0.815214,-1.05275 0.07846,-0.40908 -0.566049,-1.58652 l -6.301674,-11.51308 q -0.637976,-1.16552 -1.076126,-1.33056 -0.444684,-0.17678 -1.223674,0.22342 l -0.240878,-0.43984 z m 16.506751,12.92258 -6.872592,-7.47144 q -1.551849,-1.69438 -2.1222,-2.00066 -0.558032,-0.31085 -1.188548,-0.27261 l -0.168233,-0.47529 6.124533,-2.35594 0.168238,0.47528 q -0.594737,0.25806 -0.763901,0.57139 -0.16916,0.31296 -0.05999,0.62133 0.172789,0.48842 1.298183,1.69024 l 3.635878,3.94327 0.05644,-4.15233 q 0.04055,-2.21939 -0.227807,-2.97763 -0.168236,-0.47504 -0.576335,-0.6392 -0.395796,-0.16906 -1.168904,0.099 l -0.16825,-0.47553 3.857103,-1.48373 0.168252,0.47539 q -0.544139,0.28245 -0.76055,0.81791 -0.22095,0.52304 -0.254094,3.1194 l -0.139201,10.16847 q -0.06247,3.81902 -0.393413,4.82195 -0.468329,1.40634 -1.749936,1.89947 -1.022812,0.39328 -1.881859,0.0236 -0.842172,-0.36213 -1.14682,-1.2228 -0.263741,-0.7454 -0.0048,-1.39927 0.270845,-0.65898 0.911642,-0.90527 0.616139,-0.23708 1.131344,0.0318 0.527509,0.26383 0.844475,1.12014 0.185109,0.48317 0.333721,0.58669 0.148602,0.10349 0.333446,0.0322 0.295746,-0.11393 0.496598,-0.61421 0.301959,-0.72939 0.285355,-2.91228 z m 22.95774,-3.81991 0.009,0.50667 -9.31124,0.18133 -0.009,-0.50668 0.59098,-0.0111 q 0.77484,-0.0152 1.24247,-0.31185 0.33795,-0.19821 0.51355,-0.66733 0.13857,-0.33147 0.11353,-1.72799 l -0.21879,-12.21258 q -0.0248,-1.42376 -0.17637,-1.77686 -0.15079,-0.35329 -0.60198,-0.60479 -0.43827,-0.265216 -1.18687,-0.250716 l -0.59101,0.0111 -0.009,-0.5065 9.31117,-0.18137 0.009,0.50672 -0.59098,0.0111 q -0.7748,0.0153 -1.24248,0.311716 -0.33804,0.19822 -0.52672,0.66775 -0.13847,0.33137 -0.11352,1.72785 l 0.21884,12.21247 q 0.0248,1.42393 0.17628,1.77716 0.16403,0.35292 0.60225,0.61818 0.45123,0.2515 1.1998,0.23691 z m 8.15518,-11.68683 -0.20924,1.64241 q 1.07239,-0.92917 1.99227,-1.28511 0.92168,-0.36966 1.91121,-0.23265 1.18492,0.16402 1.87801,0.96433 0.69472,0.78678 0.82548,1.841 0.10981,0.80272 -0.17026,3.00166 l -0.62944,4.94114 q -0.18672,1.46609 0.0138,1.86672 0.21546,0.38904 1.0107,0.59585 l -0.0626,0.48857 -6.15884,-0.85255 0.0626,-0.4886 q 0.70223,5.2e-4 1.0657,-0.46031 0.25156,-0.31056 0.42272,-1.65447 l 0.71927,-5.64696 q 0.19887,-1.56111 0.13355,-1.98432 -0.0653,-0.4237 -0.32407,-0.68054 -0.24409,-0.26859 -0.58264,-0.31544 -1.11982,-0.15491 -2.29599,1.38115 l -0.86621,6.80095 q -0.18159,1.4253 0.0171,1.83958 0.21196,0.41623 0.89006,0.60683 l -0.0625,0.48857 -6.15881,-0.85258 0.0623,-0.48877 q 0.77846,0.0251 1.1594,-0.36424 0.2594,-0.26806 0.44618,-1.73418 l 0.91288,-7.1673 q 0.18325,-1.43891 -0.0312,-1.8278 -0.20245,-0.38713 -0.99592,-0.60758 l 0.064,-0.50226 z m 19.82586,4.82977 -1.25172,4.17378 -0.41948,-0.15937 q -0.11315,-2.1133 -0.69323,-3.09205 -0.56783,-0.97411 -1.36993,-1.2793 -0.50588,-0.19259 -0.9898,0.0315 -0.47941,0.21122 -0.64159,0.67449 -0.12159,0.34701 0.0122,0.76261 0.21016,0.67755 1.57359,2.65428 1.36786,1.96366 1.62018,3.08005 0.26924,1.10823 -0.11815,2.21447 -0.35129,1.00352 -1.17033,1.78511 -0.81916,0.78155 -1.87525,0.96276 -1.05618,0.18117 -2.11728,-0.22268 -0.82675,-0.31445 -2.01956,-1.38091 -0.32058,-0.28207 -0.4563,-0.33373 -0.40728,-0.15499 -0.90381,0.38476 l -0.40721,-0.15478 1.31591,-4.39739 0.41952,0.15972 q -0.0406,1.90919 0.62589,3.12439 0.67748,1.21976 1.54125,1.5487 0.59222,0.2254 1.09303,-0.006 0.51765,-0.24042 0.70676,-0.78058 0.21616,-0.61751 0.004,-1.2085 -0.2125,-0.59122 -1.17596,-1.99287 -1.41044,-2.08191 -1.71345,-3.01348 -0.44505,-1.36472 8.6e-4,-2.63824 0.48644,-1.38933 1.79134,-2.16092 1.32178,-0.77964 3.06151,-0.11775 0.93776,0.35709 1.64716,1.16619 0.26565,0.31982 0.47536,0.39977 0.2221,0.0847 0.3894,0.0463 0.17173,-0.0515 0.62545,-0.38904 z m 14.97742,9.62716 -5.37243,8.31299 q -0.78535,1.21512 -0.76564,1.67488 0.0263,0.44804 0.64016,0.99453 l -0.26418,0.40871 -4.15042,-2.91515 0.91745,-1.41962 q -1.31694,0.39598 -2.3184,0.30349 -0.99408,-0.10384 -1.89826,-0.73905 -0.86051,-0.60434 -1.18363,-1.6238 -0.305,-1.02319 -0.057,-1.92232 0.24828,-0.89869 1.43729,-2.73836 l 2.72297,-4.21337 q 0.77797,-1.2038 0.75092,-1.65204 -0.0155,-0.44063 -0.63282,-1.00601 l 0.2716,-0.41991 4.15029,2.91497 -4.68983,7.25684 q -0.73398,1.1355 -0.84878,1.53393 -0.10288,0.40591 0.004,0.72901 0.11862,0.33121 0.41277,0.53786 0.39211,0.27548 0.84747,0.28159 0.62658,0.0105 1.81645,-0.45796 l 3.66964,-5.6782 q 0.77799,-1.20382 0.75095,-1.65217 -0.0155,-0.44044 -0.63279,-1.00585 l 0.2715,-0.42028 z m 7.81063,7.76669 -2.00287,2.01696 q 2.21857,-0.46369 3.30144,-0.22118 1.09222,0.23283 1.68541,0.87283 0.51099,0.55179 0.48131,1.20956 -0.0102,0.65856 -0.606,1.25768 -0.63301,0.63766 -1.28367,0.66464 -0.64158,0.0366 -1.06136,-0.41646 -0.48367,-0.52194 -0.51829,-1.22959 -0.0342,-0.70738 -0.0612,-0.81438 -0.0343,-0.15561 -0.15321,-0.28367 -0.26467,-0.28583 -0.70987,-0.33259 -0.69525,-0.0807 -1.48203,0.31233 -1.20845,0.60757 -2.31385,1.7207 l -2.03123,2.04541 -0.51997,0.54255 q -0.53843,0.54223 -0.62571,0.76355 -0.14561,0.37497 -0.0589,0.72505 0.1058,0.35062 0.58829,0.93074 l -0.34017,0.34241 -4.60826,-4.97393 0.34006,-0.34234 q 0.60387,0.55314 1.06009,0.49359 0.4747,-0.0592 1.62734,-1.21987 l 4.88439,-4.91848 q 0.75579,-0.7609 0.89064,-1.04906 0.17326,-0.36508 0.12271,-0.67556 -0.0513,-0.3109 -0.44129,-0.83149 l 0.34949,-0.3517 z m 6.94367,18.42037 -4.01108,-5.64467 q -1.89264,1.61523 -2.32878,3.48583 -0.33658,1.43586 0.42192,2.50315 0.46912,0.66019 1.20053,0.93034 0.74188,0.26198 2.09812,0.16897 l 0.0325,0.55343 q -2.23005,0.42728 -3.63544,-0.0554 -1.39482,-0.49054 -2.34102,-1.82193 -1.62626,-2.28868 -0.77419,-4.77028 0.68911,-1.99769 2.705,-3.55472 2.46961,-1.90734 4.9114,-1.64592 2.46004,0.26426 3.78931,2.13497 1.1103,1.56233 0.68842,3.66042 -0.40329,2.10088 -2.75769,4.05564 z m -1.2161,-3.25298 q 1.69914,-1.3124 2.19166,-1.99947 0.5004,-0.67625 0.53831,-1.33594 0.0251,-0.3779 -0.24796,-0.76294 -0.40656,-0.57214 -1.20288,-0.51946 -1.40063,0.0763 -3.03659,1.33976 l -0.36941,0.28523 z m 18.1976,9.93215 -12.16302,7.50404 q -1.23227,0.76014 -1.41808,0.97032 -0.31949,0.32444 -0.35321,0.69527 -0.0263,0.38263 0.30237,1.0705 l -0.37301,0.23014 -3.51278,-4.11796 1.67299,-1.03217 q -1.44716,-0.23695 -2.17208,-0.68066 -0.71847,-0.432 -1.18667,-1.25686 -1.19748,-2.10948 -0.0842,-4.45096 0.90754,-1.89649 3.04404,-3.2146 1.70694,-1.05307 3.39989,-1.27015 1.7044,-0.22413 2.996,0.4111 1.29827,0.64698 1.99398,1.87258 0.4482,0.78961 0.50224,1.58373 0.0547,0.7941 -0.28621,1.9427 l 3.18779,-1.96662 q 1.2094,-0.74627 1.39804,-1.00573 0.24753,-0.34369 0.24525,-0.72416 -0.003,-0.38043 -0.44386,-1.15829 l 0.47483,-0.29283 z m -9.03973,1.12183 q 1.11016,-1.86242 0.39437,-3.12338 -0.24751,-0.43603 -0.63409,-0.57934 -0.59797,-0.21985 -1.64027,0.0409 -1.03559,0.27291 -2.85554,1.39569 -2.00079,1.2344 -2.78769,2.13363 -0.78694,0.89915 -0.91564,1.69449 -0.0613,0.40355 0.20687,0.87497 0.58867,1.03703 2.67044,0.99385 z"
           id="text1"
           inkscape:label="text5"
           aria-label="Fully Insured" /><path
           style="font-weight:bold;font-size:29.5637px;font-family:'Times New Roman';-inkscape-font-specification:'Times New Roman,  Bold';fill:#53b021;stroke:#53b021;stroke-width:0.648583;stroke-opacity:1;fill-opacity:1"
           d="m 181.08633,220.47635 -6.19363,-4.06 -0.27269,0.45211 q -0.62926,1.04339 -0.72755,1.9009 -0.0984,0.85764 0.34068,1.77617 0.43199,0.93019 1.56012,1.86384 l -0.24471,0.40568 -7.57249,-4.96376 0.24471,-0.40578 q 2.27895,1.18654 3.55155,0.64581 1.27673,-0.52185 2.02484,-1.76225 l 0.27267,-0.45209 -4.61466,-3.02492 q -1.15643,-0.7581 -1.52246,-0.82009 -0.37301,-0.0507 -0.82613,0.18635 -0.44899,0.25564 -0.84753,0.91648 l -0.31463,0.52158 -0.41143,-0.26967 4.95717,-8.21905 0.41143,0.26975 -0.31464,0.52162 q -0.41251,0.68401 -0.43069,1.25433 -0.0262,0.40347 0.25407,0.81362 0.18995,0.30242 1.32416,1.04595 l 9.91874,6.5018 q 1.15644,0.75804 1.52247,0.82003 0.36602,0.0619 0.81501,-0.19366 0.45312,-0.23674 0.85165,-0.8975 l 0.31464,-0.52171 0.41142,0.2697 -7.99858,13.26192 -4.32554,-2.83553 0.28666,-0.47539 q 1.62127,0.83645 2.76069,0.64513 1.13244,-0.17969 2.19476,-1.24646 0.5863,-0.58633 1.71897,-2.46422 z m -18.38326,17.31805 -7.09554,-6.76433 q -1.03719,-0.9889 -1.47618,-1.03625 -0.42931,-0.0379 -1.03787,0.51378 l -0.34897,-0.33286 3.37719,-3.85017 1.21166,1.15516 q -0.18157,-1.41628 0.0536,-2.43534 0.24493,-1.00978 0.98064,-1.8484 0.70026,-0.7984 1.7151,-0.98133 1.01568,-0.16362 1.8319,0.22476 0.8162,0.3884 2.38653,1.8855 l 3.59622,3.42822 q 1.0275,0.97959 1.45681,1.0177 0.42044,0.0487 1.04756,-0.50413 l 0.35866,0.3418 -3.3772,3.85004 -6.19405,-5.90485 q -0.96934,-0.92397 -1.33022,-1.10102 -0.36974,-0.16706 -0.69242,-0.10352 -0.33155,0.0733 -0.57087,0.3466 -0.3191,0.36373 -0.39198,0.83222 -0.10248,0.64468 0.16685,1.94059 l 4.84668,4.62053 q 1.0275,0.97937 1.45681,1.01751 0.42044,0.0487 1.04756,-0.50445 l 0.35866,0.342 z m -4.84142,11.28794 -9.04911,-12.81397 q -0.77096,-1.09169 -1.23231,-1.21373 -0.45354,-0.11105 -1.1934,0.3889 l -0.28034,-0.3971 5.34169,-4.09976 0.28036,0.39683 q -0.64024,0.52563 -0.69279,1.14391 -0.0325,0.41607 0.73852,1.50775 l 7.53833,10.67451 q 0.76317,1.08066 1.21672,1.19166 0.46134,0.12208 1.19061,-0.3695 l 0.28814,0.40786 z m -8.13117,5.19811 -7.56461,-13.82004 q -0.64449,-1.17734 -1.08916,-1.3544 -0.43817,-0.16507 -1.22856,0.24229 l -0.23438,-0.42839 5.76125,-3.42721 0.23437,0.42802 q -0.69431,0.44459 -0.81521,1.05275 -0.0785,0.40908 0.56605,1.58652 l 6.30167,11.51308 q 0.63798,1.16552 1.07613,1.33056 0.44468,0.17678 1.22367,-0.22342 l 0.24088,0.43984 z m -16.50676,-12.92258 6.8726,7.47144 q 1.55185,1.69438 2.1222,2.00066 0.55803,0.31085 1.18854,0.27261 l 0.16824,0.47529 -6.12454,2.35594 -0.16823,-0.47528 q 0.59473,-0.25806 0.7639,-0.57139 0.16916,-0.31296 0.06,-0.62133 -0.17279,-0.48842 -1.29819,-1.69024 l -3.63587,-3.94327 -0.0564,4.15233 q -0.0405,2.21939 0.2278,2.97763 0.16824,0.47504 0.57634,0.6392 0.39579,0.16906 1.1689,-0.099 l 0.16825,0.47553 -3.8571,1.48373 -0.16825,-0.47539 q 0.54414,-0.28245 0.76055,-0.81791 0.22095,-0.52304 0.25409,-3.1194 l 0.1392,-10.16847 q 0.0625,-3.81902 0.39342,-4.82195 0.46832,-1.40634 1.74993,-1.89947 1.02281,-0.39328 1.88186,-0.0236 0.84217,0.36213 1.14682,1.2228 0.26374,0.7454 0.005,1.39927 -0.27084,0.65898 -0.91164,0.90527 -0.61614,0.23708 -1.13135,-0.0318 -0.5275,-0.26383 -0.84447,-1.12014 -0.18511,-0.48317 -0.33372,-0.58669 -0.1486,-0.10349 -0.33345,-0.0322 -0.29574,0.11393 -0.4966,0.61421 -0.30195,0.72939 -0.28535,2.91228 z m -22.95774,3.81991 -0.009,-0.50667 9.31124,-0.18133 0.009,0.50668 -0.59098,0.0111 q -0.77484,0.0152 -1.24247,0.31185 -0.33795,0.19821 -0.51355,0.66733 -0.13857,0.33147 -0.11353,1.72799 l 0.21879,12.21258 q 0.0248,1.42376 0.17637,1.77686 0.15079,0.35329 0.60198,0.60479 0.43827,0.26521 1.18687,0.25071 l 0.59101,-0.0111 0.009,0.5065 -9.31117,0.18137 -0.009,-0.50672 0.59098,-0.0111 q 0.7748,-0.0153 1.24248,-0.31171 0.33804,-0.19822 0.52672,-0.66775 0.13847,-0.33137 0.11352,-1.72785 l -0.21884,-12.21247 q -0.0248,-1.42393 -0.17628,-1.77716 -0.16403,-0.35292 -0.60225,-0.61818 -0.45123,-0.2515 -1.1998,-0.23691 z m -8.15518,11.68683 0.20924,-1.64241 q -1.07239,0.92917 -1.99227,1.28511 -0.921681,0.36966 -1.911211,0.23265 -1.18492,-0.16402 -1.878005,-0.96433 -0.69472,-0.78678 -0.82548,-1.841 -0.10981,-0.80272 0.17026,-3.00166 l 0.62944,-4.94114 q 0.18672,-1.46609 -0.0138,-1.86672 -0.21546,-0.38904 -1.0107,-0.59585 l 0.0626,-0.48857 6.158836,0.85255 -0.0626,0.4886 q -0.70223,-5.2e-4 -1.0657,0.46031 -0.25156,0.31056 -0.42272,1.65447 l -0.719271,5.64696 q -0.19887,1.56111 -0.13355,1.98432 0.0653,0.4237 0.32407,0.68054 0.24409,0.26859 0.582641,0.31544 1.11982,0.15491 2.29599,-1.38115 l 0.86621,-6.80095 q 0.18159,-1.4253 -0.0171,-1.83958 -0.21196,-0.41623 -0.89006,-0.60683 l 0.0625,-0.48857 6.15881,0.85258 -0.0623,0.48877 q -0.77846,-0.0251 -1.1594,0.36424 -0.2594,0.26806 -0.44618,1.73418 l -0.91288,7.1673 q -0.18325,1.43891 0.0312,1.8278 0.20245,0.38713 0.99592,0.60758 l -0.064,0.50226 z m -19.825856,-4.82977 1.25172,-4.17378 0.41948,0.15937 q 0.11315,2.1133 0.69323,3.09205 0.56783,0.97411 1.36993,1.2793 0.50588,0.19259 0.9898,-0.0315 0.47941,-0.21122 0.64159,-0.67449 0.12159,-0.34701 -0.0122,-0.76261 -0.21016,-0.67755 -1.57359,-2.65428 -1.36786,-1.96366 -1.62018,-3.08005 -0.26924,-1.10823 0.11815,-2.21447 0.35129,-1.00352 1.17033,-1.78511 0.81916,-0.78155 1.87525,-0.96276 1.05618,-0.18117 2.11728,0.22268 0.82675,0.31445 2.01956,1.38091 0.32058,0.28207 0.4563,0.33373 0.40728,0.15499 0.90381,-0.38476 l 0.40721,0.15478 -1.31591,4.39739 -0.41952,-0.15972 q 0.0406,-1.90919 -0.62589,-3.12439 -0.67748,-1.21976 -1.54125,-1.5487 -0.59222,-0.2254 -1.09303,0.006 -0.51765,0.24042 -0.70676,0.78058 -0.21616,0.61751 -0.004,1.2085 0.2125,0.59122 1.17596,1.99287 1.41044,2.08191 1.71345,3.01348 0.44505,1.36472 -8.6e-4,2.63824 -0.48644,1.38933 -1.79134,2.16092 -1.32178,0.77964 -3.06151,0.11775 -0.93776,-0.35709 -1.64716,-1.16619 -0.26565,-0.31982 -0.47536,-0.39977 -0.2221,-0.0847 -0.3894,-0.0463 -0.17173,0.0515 -0.62545,0.38904 z m -14.97742,-9.62716 5.37243,-8.31299 q 0.78535,-1.21512 0.76564,-1.67488 -0.0263,-0.44804 -0.64016,-0.99453 l 0.26418,-0.40871 4.15042,2.91515 -0.91745,1.41962 q 1.31694,-0.39598 2.3184,-0.30349 0.99408,0.10384 1.89826,0.73905 0.86051,0.60434 1.18363,1.6238 0.305,1.02319 0.057,1.92232 -0.24828,0.89869 -1.43729,2.73836 l -2.72297,4.21337 q -0.77797,1.2038 -0.75092,1.65204 0.0155,0.44063 0.63282,1.00601 l -0.2716,0.41991 -4.15029,-2.91497 4.68983,-7.25684 q 0.73398,-1.1355 0.84878,-1.53393 0.10288,-0.40591 -0.004,-0.72901 -0.11862,-0.33121 -0.41277,-0.53786 -0.39211,-0.27548 -0.84747,-0.28159 -0.62658,-0.0105 -1.81645,0.45796 l -3.66964,5.6782 q -0.77799,1.20382 -0.75095,1.65217 0.0155,0.44044 0.63279,1.00585 l -0.2715,0.42028 z m -7.81063,-7.76669 2.00287,-2.01696 q -2.21857,0.46369 -3.30144,0.22118 -1.09222,-0.23283 -1.68541,-0.87283 -0.51099,-0.55179 -0.48131,-1.20956 0.0102,-0.65856 0.606,-1.25768 0.63301,-0.63766 1.28367,-0.66464 0.64158,-0.0366 1.06136,0.41646 0.48367,0.52194 0.51829,1.22959 0.0342,0.70738 0.0612,0.81438 0.0343,0.15561 0.15321,0.28367 0.26467,0.28583 0.70987,0.33259 0.69525,0.0807 1.48203,-0.31233 1.20845,-0.60757 2.31385,-1.7207 l 2.03123,-2.04541 0.51997,-0.54255 q 0.53843,-0.54223 0.62571,-0.76355 0.14561,-0.37497 0.0589,-0.72505 -0.1058,-0.35062 -0.58829,-0.93074 l 0.34017,-0.34241 4.60826,4.97393 -0.34006,0.34234 q -0.60387,-0.55314 -1.06009,-0.49359 -0.4747,0.0592 -1.62734,1.21987 l -4.88439,4.91848 q -0.75579,0.7609 -0.89064,1.04906 -0.17326,0.36508 -0.12271,0.67556 0.0513,0.3109 0.44129,0.83149 l -0.34949,0.3517 z m -6.94367,-18.42037 4.01108,5.64467 q 1.89264,-1.61523 2.32878,-3.48583 0.33658,-1.43586 -0.42192,-2.50315 -0.46912,-0.66019 -1.20053,-0.93034 -0.74188,-0.26198 -2.09812,-0.16897 l -0.0325,-0.55343 q 2.23005,-0.42728 3.63544,0.0554 1.39482,0.49054 2.34102,1.82193 1.62626,2.28868 0.77419,4.77028 -0.68911,1.99769 -2.705,3.55472 -2.46961,1.90734 -4.9114,1.64592 -2.46004,-0.26426 -3.78931,-2.13497 -1.1103,-1.56233 -0.68842,-3.66042 0.40329,-2.10088 2.75769,-4.05564 z m 1.2161,3.25298 q -1.69914,1.3124 -2.19166,1.99947 -0.5004,0.67625 -0.53831,1.33594 -0.0251,0.3779 0.24796,0.76294 0.40656,0.57214 1.20288,0.51946 1.40063,-0.0763 3.03659,-1.33976 l 0.36941,-0.28523 z m -18.1976,-9.93215 12.16302,-7.50404 q 1.23227,-0.76014 1.41808,-0.97032 0.31949,-0.32444 0.35321,-0.69527 0.0263,-0.38263 -0.30237,-1.0705 l 0.37301,-0.23014 3.51278,4.11796 -1.67299,1.03217 q 1.44716,0.23695 2.17208,0.68066 0.71847,0.432 1.18667,1.25686 1.19748,2.10948 0.0842,4.45096 -0.90754,1.89649 -3.04404,3.2146 -1.70694,1.05307 -3.39989,1.27015 -1.7044,0.22413 -2.996,-0.4111 -1.29827,-0.64698 -1.99398,-1.87258 -0.4482,-0.78961 -0.50224,-1.58373 -0.0547,-0.7941 0.28621,-1.9427 l -3.18779,1.96662 q -1.2094,0.74627 -1.39804,1.00573 -0.24753,0.34369 -0.24525,0.72416 0.003,0.38043 0.44386,1.15829 l -0.47483,0.29283 z m 9.03973,-1.12183 q -1.11016,1.86242 -0.39437,3.12338 0.24751,0.43603 0.63409,0.57934 0.59797,0.21985 1.64027,-0.0409 1.03559,-0.27291 2.85554,-1.39569 2.00079,-1.2344 2.78769,-2.13363 0.78694,-0.89915 0.91564,-1.69449 0.0613,-0.40355 -0.20687,-0.87497 -0.58867,-1.03703 -2.67044,-0.99385 z"
           id="path4"
           inkscape:label="text5"
           aria-label="Fully Insured" /></g></g></g></svg>
