<?xml version="1.0" encoding="UTF-8" standalone="no"?>
<svg
   width="23"
   height="17"
   viewBox="0 0 23 17"
   fill="none"
   version="1.1"
   id="svg1"
   sodipodi:docname="leftQ.svg"
   inkscape:version="1.4.2 (f4327f4, 2025-05-13)"
   xmlns:inkscape="http://www.inkscape.org/namespaces/inkscape"
   xmlns:sodipodi="http://sodipodi.sourceforge.net/DTD/sodipodi-0.dtd"
   xmlns="http://www.w3.org/2000/svg"
   xmlns:svg="http://www.w3.org/2000/svg">
  <defs
     id="defs1" />
  <sodipodi:namedview
     id="namedview1"
     pagecolor="#ffffff"
     bordercolor="#000000"
     borderopacity="0.25"
     inkscape:showpageshadow="2"
     inkscape:pageopacity="0.0"
     inkscape:pagecheckerboard="0"
     inkscape:deskcolor="#d1d1d1"
     inkscape:zoom="22.735294"
     inkscape:cx="13.305304"
     inkscape:cy="15.372574"
     inkscape:window-width="1920"
     inkscape:window-height="991"
     inkscape:window-x="-9"
     inkscape:window-y="-9"
     inkscape:window-maximized="1"
     inkscape:current-layer="svg1" />
  <path
     d="m 0.681838,16.761364 v -4.9091 c 0,-1.3939 0.272724,-2.81817 0.818184,-4.27272 0.54545,-1.45454 1.26515,-2.82576 2.15909,-4.11364 0.89394,-1.28788 1.86364,-2.36363 2.90909,-3.227268 l 4.27276,2.522728 c -0.8485,1.33333 -1.54549,2.72727 -2.09094,4.18182 -0.5303,1.45454 -0.79546,3.07578 -0.79546,4.86368 v 4.9545 z m 11.477224,0 v -4.9091 c 0,-1.3939 0.2728,-2.81817 0.8182,-4.27272 0.5455,-1.45454 1.2652,-2.82576 2.1591,-4.11364 0.894,-1.28788 1.8637,-2.36363 2.9091,-3.227268 l 4.2727,2.522728 c -0.8484,1.33333 -1.5454,2.72727 -2.0909,4.18182 -0.5303,1.45454 -0.7954,3.07578 -0.7954,4.86368 v 4.9545 z"
     fill="#FDFEFD"
     id="path1"
     style="fill:#fdfefd;fill-opacity:1" />
</svg>
