<?xml version="1.0" encoding="UTF-8" standalone="no"?>
<svg
   version="1.1"
   width="256"
   height="256"
   viewBox="0 0 256 256"
   xml:space="preserve"
   id="svg2"
   sodipodi:docname="Mail.svg"
   inkscape:version="1.4.2 (f4327f4, 2025-05-13)"
   xmlns:inkscape="http://www.inkscape.org/namespaces/inkscape"
   xmlns:sodipodi="http://sodipodi.sourceforge.net/DTD/sodipodi-0.dtd"
   xmlns="http://www.w3.org/2000/svg"
   xmlns:svg="http://www.w3.org/2000/svg"><defs
   id="defs2" /><sodipodi:namedview
   id="namedview2"
   pagecolor="#ffffff"
   bordercolor="#000000"
   borderopacity="0.25"
   inkscape:showpageshadow="2"
   inkscape:pageopacity="0.0"
   inkscape:pagecheckerboard="0"
   inkscape:deskcolor="#d1d1d1"
   inkscape:zoom="3.0195312"
   inkscape:cx="128"
   inkscape:cy="128"
   inkscape:window-width="1920"
   inkscape:window-height="991"
   inkscape:window-x="-9"
   inkscape:window-y="-9"
   inkscape:window-maximized="1"
   inkscape:current-layer="svg2" />
<g
   style="stroke: none; stroke-width: 0; stroke-dasharray: none; stroke-linecap: butt; stroke-linejoin: miter; stroke-miterlimit: 10; fill: none; fill-rule: nonzero; opacity: 1;"
   transform="translate(1.4065934065934016 1.4065934065934016) scale(2.81 2.81)"
   id="g2">
	<path
   d="M 45 51.815 l 45 -33.87 v -1.967 c 0 -2.03 -1.646 -3.676 -3.676 -3.676 H 3.676 C 1.646 12.302 0 13.948 0 15.978 v 1.967 L 45 51.815 z"
   style="stroke:none;stroke-width:1;stroke-dasharray:none;stroke-linecap:butt;stroke-linejoin:miter;stroke-miterlimit:10;fill:#0a6f9f;fill-rule:nonzero;opacity:1;fill-opacity:1"
   transform=" matrix(1 0 0 1 0 0) "
   stroke-linecap="round"
   id="path1" />
	<path
   d="M 47.405 60.019 c -0.712 0.536 -1.559 0.804 -2.405 0.804 s -1.693 -0.268 -2.405 -0.804 L 0 27.958 v 46.064 c 0 2.03 1.646 3.676 3.676 3.676 h 82.648 c 2.03 0 3.676 -1.646 3.676 -3.676 V 27.958 L 47.405 60.019 z"
   style="stroke:none;stroke-width:1;stroke-dasharray:none;stroke-linecap:butt;stroke-linejoin:miter;stroke-miterlimit:10;fill:#0a6f9f;fill-rule:nonzero;opacity:1;fill-opacity:1"
   transform=" matrix(1 0 0 1 0 0) "
   stroke-linecap="round"
   id="path2" />
</g>
</svg>
